<svg width="33" height="33" viewBox="0 0 33 33" fill="none" xmlns="http://www.w3.org/2000/svg">
<path d="M27.5 13.75C27.5 13.3853 27.3552 13.0356 27.0973 12.7777C26.8395 12.5199 26.4897 12.375 26.125 12.375C25.7604 12.375 25.4106 12.5199 25.1528 12.7777C24.8949 13.0356 24.75 13.3853 24.75 13.75H27.5ZM8.25005 13.75C8.25005 13.3853 8.10518 13.0356 7.84732 12.7777C7.58946 12.5199 7.23972 12.375 6.87505 12.375C6.51038 12.375 6.16064 12.5199 5.90278 12.7777C5.64492 13.0356 5.50005 13.3853 5.50005 13.75H8.25005ZM27.9029 17.4721C28.1623 17.7226 28.5096 17.8612 28.8701 17.8581C29.2306 17.8549 29.5755 17.7103 29.8304 17.4554C30.0854 17.2005 30.23 16.8556 30.2331 16.4951C30.2362 16.1345 30.0976 15.7872 29.8472 15.5279L27.9029 17.4721ZM16.5 4.12501L17.4722 3.15289C17.2143 2.89511 16.8646 2.75031 16.5 2.75031C16.1354 2.75031 15.7858 2.89511 15.5279 3.15289L16.5 4.12501ZM3.15293 15.5279C3.0216 15.6547 2.91685 15.8065 2.84479 15.9742C2.77272 16.142 2.73479 16.3224 2.73321 16.505C2.73162 16.6875 2.76641 16.8686 2.83555 17.0376C2.90468 17.2066 3.00678 17.3601 3.13588 17.4892C3.26498 17.6183 3.41851 17.7204 3.58749 17.7895C3.75647 17.8587 3.93753 17.8934 4.1201 17.8919C4.30267 17.8903 4.4831 17.8523 4.65086 17.7803C4.81861 17.7082 4.97034 17.6035 5.09718 17.4721L3.15293 15.5279ZM9.62505 30.25H23.375V27.5H9.62505V30.25ZM27.5 26.125V13.75H24.75V26.125H27.5ZM8.25005 26.125V13.75H5.50005V26.125H8.25005ZM29.8472 15.5279L17.4722 3.15289L15.5279 5.09714L27.9029 17.4721L29.8472 15.5279ZM15.5279 3.15289L3.15293 15.5279L5.09718 17.4721L17.4722 5.09714L15.5279 3.15289ZM23.375 30.25C24.4691 30.25 25.5183 29.8154 26.2919 29.0418C27.0655 28.2682 27.5 27.219 27.5 26.125H24.75C24.75 26.4897 24.6052 26.8394 24.3473 27.0973C24.0895 27.3551 23.7397 27.5 23.375 27.5V30.25ZM9.62505 27.5C9.26038 27.5 8.91064 27.3551 8.65278 27.0973C8.39492 26.8394 8.25005 26.4897 8.25005 26.125H5.50005C5.50005 27.219 5.93465 28.2682 6.70823 29.0418C7.48182 29.8154 8.53103 30.25 9.62505 30.25V27.5Z" fill="#DBDBDB"/>
</svg>
