<svg width="33" height="33" viewBox="0 0 33 33" fill="none" xmlns="http://www.w3.org/2000/svg">
<path d="M14.85 11.55H18.15V8.25H14.85M16.5 29.7C9.2235 29.7 3.3 23.7765 3.3 16.5C3.3 9.2235 9.2235 3.3 16.5 3.3C23.7765 3.3 29.7 9.2235 29.7 16.5C29.7 23.7765 23.7765 29.7 16.5 29.7ZM16.5 0C14.3332 0 12.1876 0.426785 10.1857 1.25599C8.18385 2.08519 6.3649 3.30057 4.83274 4.83274C1.73839 7.92709 0 12.1239 0 16.5C0 20.8761 1.73839 25.0729 4.83274 28.1673C6.3649 29.6994 8.18385 30.9148 10.1857 31.744C12.1876 32.5732 14.3332 33 16.5 33C20.8761 33 25.0729 31.2616 28.1673 28.1673C31.2616 25.0729 33 20.8761 33 16.5C33 14.3332 32.5732 12.1876 31.744 10.1857C30.9148 8.18385 29.6994 6.3649 28.1673 4.83274C26.6351 3.30057 24.8161 2.08519 22.8143 1.25599C20.8124 0.426785 18.6668 0 16.5 0ZM14.85 24.75H18.15V14.85H14.85V24.75Z" fill="#DBDBDB"/>
</svg>
