<svg width="33" height="33" viewBox="0 0 33 33" fill="none" xmlns="http://www.w3.org/2000/svg">
<path d="M12.375 28.875H20.625M12.375 28.875V22M12.375 28.875H4.95C4.7312 28.875 4.52135 28.7881 4.36664 28.6334C4.21192 28.4786 4.125 28.2688 4.125 28.05V22.825C4.125 22.6062 4.21192 22.3964 4.36664 22.2416C4.52135 22.0869 4.7312 22 4.95 22H12.375M20.625 28.875V12.375M20.625 28.875H28.05C28.2688 28.875 28.4786 28.7881 28.6334 28.6334C28.7881 28.4786 28.875 28.2688 28.875 28.05V4.95C28.875 4.7312 28.7881 4.52135 28.6334 4.36664C28.4786 4.21192 28.2688 4.125 28.05 4.125H21.45C21.2312 4.125 21.0214 4.21192 20.8666 4.36664C20.7119 4.52135 20.625 4.7312 20.625 4.95V12.375M12.375 22V13.2C12.375 12.9812 12.4619 12.7714 12.6166 12.6166C12.7714 12.4619 12.9812 12.375 13.2 12.375H20.625" stroke="#DBDBDB" stroke-width="3"/>
</svg>
