<svg width="42" height="42" viewBox="0 0 42 42" fill="none" xmlns="http://www.w3.org/2000/svg">
<path d="M18.2 9.80001C18.2002 10.8516 17.9767 11.8912 17.5444 12.8497C17.1121 13.8083 16.4808 14.664 15.6924 15.3599C14.9041 16.0558 13.9767 16.5761 12.9719 16.8862C11.9671 17.1963 10.9078 17.2891 9.86442 17.1584L8.96842 17.0464C7.67826 16.8853 6.4525 16.3902 5.41242 15.61L1.40002 12.6V7.00001L5.41242 3.99001C6.4525 3.2098 7.67826 2.71467 8.96842 2.55361L9.86442 2.44161C10.9078 2.31095 11.9671 2.40375 12.9719 2.71383C13.9767 3.02391 14.9041 3.54418 15.6924 4.2401C16.4808 4.93603 17.1121 5.79168 17.5444 6.75027C17.9767 7.70885 18.2002 8.74844 18.2 9.80001ZM18.2 9.80001V40.6H12.6V16.8M23.8 9.80001C23.7998 10.8516 24.0233 11.8912 24.4556 12.8497C24.888 13.8083 25.5193 14.664 26.3076 15.3599C27.0959 16.0558 28.0233 16.5761 29.0281 16.8862C30.0329 17.1963 31.0922 17.2891 32.1356 17.1584L33.0316 17.0464C34.3196 16.884 35.546 16.3912 36.5876 15.61L40.6 12.6V7.00001L36.5876 3.99001C35.5475 3.2098 34.3218 2.71467 33.0316 2.55361L32.1356 2.44161C31.0922 2.31095 30.0329 2.40375 29.0281 2.71383C28.0233 3.02391 27.0959 3.54418 26.3076 4.2401C25.5193 4.93603 24.888 5.79168 24.4556 6.75027C24.0233 7.70885 23.7998 8.74844 23.8 9.80001ZM23.8 9.80001V40.6H29.4V16.8M5.60002 9.80001H11.2M30.8 9.80001H36.4" stroke="#D9D9D9" stroke-width="2"/>
</svg>
