<svg width="70" height="70" viewBox="0 0 70 70" fill="none" xmlns="http://www.w3.org/2000/svg">
<path d="M16.9867 10.5933L35 28.6067L52.92 10.6867C53.3158 10.2654 53.7927 9.92831 54.3219 9.69576C54.8512 9.46321 55.422 9.33994 56 9.33334C57.2377 9.33334 58.4247 9.825 59.2998 10.7002C60.175 11.5753 60.6667 12.7623 60.6667 14C60.6776 14.5721 60.5714 15.1405 60.3547 15.6701C60.1381 16.1998 59.8154 16.6795 59.4067 17.08L41.2533 35L59.4067 53.1533C60.1758 53.9058 60.6268 54.9247 60.6667 56C60.6667 57.2377 60.175 58.4247 59.2998 59.2998C58.4247 60.175 57.2377 60.6667 56 60.6667C55.4053 60.6913 54.8119 60.5921 54.2576 60.3752C53.7032 60.1582 53.2001 59.8284 52.78 59.4067L35 41.3933L17.0333 59.36C16.639 59.7673 16.168 60.0924 15.6473 60.3167C15.1267 60.541 14.5668 60.6599 14 60.6667C12.7623 60.6667 11.5753 60.175 10.7002 59.2998C9.825 58.4247 9.33334 57.2377 9.33334 56C9.32246 55.4279 9.42861 54.8595 9.64528 54.3299C9.86195 53.8002 10.1846 53.3205 10.5933 52.92L28.7467 35L10.5933 16.8467C9.8242 16.0942 9.37319 15.0753 9.33334 14C9.33334 12.7623 9.825 11.5753 10.7002 10.7002C11.5753 9.825 12.7623 9.33334 14 9.33334C15.12 9.34734 16.1933 9.8 16.9867 10.5933Z" fill="white"/>
</svg>
