<svg width="120" height="120" viewBox="0 0 120 120" fill="none" xmlns="http://www.w3.org/2000/svg">
<path d="M109.812 55.3195H113.906V64.6805H109.812V55.3195ZM101.743 67.4213H105.838V52.5788H101.743V67.4213ZM93.81 75.0984H97.9045V44.9016H93.81V75.0984ZM86.2685 81.0225H90.3631V39.2538H86.2685V81.0124V81.0225ZM78.1948 70.8223H82.2893V49.1777H78.1948V70.8223ZM69.993 87.2002H74.0876V31.8736H69.9802V87.2002H69.993ZM61.9219 95.1328H66.0164V24.8672H61.9219V95.1328ZM53.9888 84.285H58.0833V35.7148H53.9888V84.2852V84.285ZM45.7819 70.492H49.8764V50.0194H45.7819V70.492ZM37.849 65.6116H41.9435V54.3703H37.849V65.6302V65.6116ZM29.9159 71.6257H34.0104V48.3663H29.9159V71.6332V71.6257ZM22.1107 82.8851H26.2052V35.7839H22.1109V82.8933L22.1107 82.8851ZM14.1778 75.6893H18.2723V43.9062H14.1778V75.6973V75.6893ZM6.09375 67.4213H10.1883V52.5788H6.09375V67.4213Z" fill="black"/>
</svg>
